<?xml version="1.0" encoding="UTF-8" standalone="no"?><!DOCTYPE svg PUBLIC "-//W3C//DTD SVG 1.1//EN" "http://www.w3.org/Graphics/SVG/1.1/DTD/svg11.dtd"><svg width="100%" height="100%" viewBox="0 0 189 42" version="1.1" xmlns="http://www.w3.org/2000/svg" xmlns:xlink="http://www.w3.org/1999/xlink" xml:space="preserve" xmlns:serif="http://www.serif.com/" style="fill-rule:evenodd;clip-rule:evenodd;stroke-linejoin:round;stroke-miterlimit:2;"><g id="Horizontal--new-" serif:id="Horizontal (new)"><g><g><path d="M47.256,17.889c0.732,0.185 1.276,0.537 1.632,1.075c0.376,0.519 0.545,1.131 0.545,1.798c0,1.28 -0.413,2.244 -1.239,2.911c-0.825,0.649 -2.045,0.982 -3.621,0.982l-5.16,0l0,-13.181l4.709,0c1.614,0 2.853,0.297 3.716,0.909c0.863,0.593 1.313,1.501 1.313,2.707c0,0.63 -0.169,1.186 -0.488,1.687c-0.3,0.482 -0.788,0.852 -1.407,1.112Zm-4.972,-4.116l0,3.207l1.838,0c0.732,0 1.258,-0.129 1.614,-0.389c0.357,-0.259 0.526,-0.667 0.526,-1.186c0,-0.575 -0.169,-0.983 -0.507,-1.242c-0.338,-0.26 -0.882,-0.39 -1.633,-0.39l-1.838,0Zm2.289,8.584c0.656,0 1.163,-0.149 1.501,-0.445c0.319,-0.297 0.488,-0.686 0.488,-1.168c0,-1.187 -0.619,-1.78 -1.877,-1.78l-2.401,0l0,3.393l2.289,0Z" style="fill:#fff;fill-rule:nonzero;"/></g><g><path d="M61.819,24.526l0,0.129l-3.077,0l-2.458,-4.764l-2.083,0l0,4.764l-2.871,0l0,-13.181l5.048,0c1.032,0 1.914,0.149 2.645,0.464c0.751,0.297 1.314,0.741 1.727,1.335c0.394,0.611 0.581,1.335 0.581,2.187c0,0.927 -0.206,1.706 -0.6,2.299c-0.413,0.593 -1.013,1.057 -1.764,1.409l2.852,5.358Zm-7.618,-6.934l2.177,0c0.675,0 1.201,-0.167 1.557,-0.5c0.338,-0.334 0.526,-0.797 0.526,-1.391c0,-0.611 -0.169,-1.075 -0.526,-1.427c-0.356,-0.334 -0.882,-0.501 -1.557,-0.501l-2.177,0l0,3.819Z" style="fill:#fff;fill-rule:nonzero;"/></g><g><path d="M70.94,22.042l-4.728,0l-0.863,2.613l-3.078,0l4.954,-13.181l2.683,0l4.973,13.181l-3.078,0l-0.863,-2.613Zm-0.769,-2.299l-1.614,-4.802l-1.595,4.802l3.209,0Z" style="fill:#fff;fill-rule:nonzero;"/></g><g><path d="M83.931,24.655l-5.198,-8.49l0,8.49l-2.871,0l0,-13.181l2.871,0l5.198,8.51l0,-8.51l2.87,0l0,13.181l-2.87,0Z" style="fill:#fff;fill-rule:nonzero;"/></g><g><path d="M92.985,11.474c1.183,0 2.252,0.26 3.172,0.798c0.919,0.519 1.651,1.26 2.157,2.224c0.526,0.946 0.789,2.04 0.789,3.282l0,0.574c0,1.242 -0.263,2.336 -0.789,3.282c-0.506,0.964 -1.238,1.705 -2.157,2.224c-0.939,0.538 -1.989,0.797 -3.19,0.797l-4.147,0l0,-13.181l4.165,0Zm3.19,6.285c0,-1.298 -0.262,-2.299 -0.807,-2.966c-0.544,-0.686 -1.351,-1.02 -2.383,-1.02l-1.294,0l0,8.584l1.276,0c1.032,0 1.839,-0.334 2.383,-1.02c0.544,-0.686 0.825,-1.687 0.825,-2.985l0,-0.593Z" style="fill:#fff;fill-rule:nonzero;"/></g><g><path d="M111.87,18.352c0,1.317 -0.244,2.466 -0.713,3.449c-0.488,0.964 -1.164,1.724 -2.027,2.243c-0.863,0.537 -1.839,0.797 -2.964,0.797c-1.126,0 -2.121,-0.26 -2.984,-0.797c-0.882,-0.519 -1.557,-1.279 -2.026,-2.243c-0.488,-0.983 -0.732,-2.132 -0.732,-3.449l0,-0.574c0,-1.317 0.244,-2.447 0.732,-3.43c0.469,-0.983 1.144,-1.743 2.007,-2.262c0.863,-0.537 1.858,-0.797 2.984,-0.797c1.126,0 2.12,0.26 2.983,0.797c0.863,0.519 1.539,1.279 2.008,2.262c0.488,0.983 0.732,2.113 0.732,3.43l0,0.574Zm-2.909,-0.593c0,-1.335 -0.244,-2.354 -0.731,-3.059c-0.488,-0.723 -1.183,-1.075 -2.083,-1.075c-0.901,0 -1.595,0.352 -2.083,1.057c-0.488,0.704 -0.732,1.742 -0.732,3.077l0,0.593c0,1.335 0.244,2.355 0.732,3.078c0.488,0.723 1.201,1.075 2.102,1.075c0.9,0 1.576,-0.352 2.064,-1.075c0.487,-0.723 0.731,-1.743 0.731,-3.078l0,-0.593Z" style="fill:#fff;fill-rule:nonzero;"/></g><g><path d="M121.466,24.655l-5.197,-8.49l0,8.49l-2.871,0l0,-13.181l2.871,0l5.197,8.51l0,-8.51l2.871,0l0,13.181l-2.871,0Z" style="fill:#fff;fill-rule:nonzero;"/></g><g><path d="M141.874,20.243c-0.057,0.909 -0.319,1.706 -0.751,2.392c-0.45,0.704 -1.069,1.242 -1.857,1.631c-0.789,0.371 -1.727,0.575 -2.796,0.575c-1.145,0 -2.139,-0.26 -2.965,-0.779c-0.844,-0.519 -1.482,-1.26 -1.933,-2.206c-0.431,-0.964 -0.656,-2.095 -0.656,-3.374l0,-0.816c0,-1.297 0.225,-2.41 0.694,-3.374c0.45,-0.964 1.107,-1.705 1.932,-2.224c0.845,-0.519 1.821,-0.779 2.928,-0.779c1.107,0 2.045,0.204 2.814,0.593c0.788,0.408 1.389,0.946 1.82,1.65c0.432,0.705 0.695,1.52 0.788,2.447l-2.87,0c-0.057,-0.797 -0.282,-1.39 -0.676,-1.779c-0.375,-0.39 -1.013,-0.594 -1.876,-0.594c-0.882,0 -1.558,0.334 -1.989,0.983c-0.432,0.649 -0.657,1.668 -0.657,3.059l0,0.834c0,0.927 0.094,1.687 0.263,2.28c0.187,0.594 0.469,1.02 0.844,1.317c0.394,0.278 0.901,0.426 1.539,0.426c0.825,0 1.445,-0.185 1.839,-0.556c0.412,-0.371 0.638,-0.946 0.694,-1.706l2.871,0Z" style="fill:#fff;fill-rule:nonzero;"/></g><g><path d="M154.094,18.352c0,1.317 -0.244,2.466 -0.713,3.449c-0.488,0.964 -1.163,1.724 -2.026,2.243c-0.864,0.537 -1.839,0.797 -2.965,0.797c-1.126,0 -2.121,-0.26 -2.984,-0.797c-0.882,-0.519 -1.557,-1.279 -2.026,-2.243c-0.488,-0.983 -0.732,-2.132 -0.732,-3.449l0,-0.574c0,-1.317 0.244,-2.447 0.732,-3.43c0.469,-0.983 1.144,-1.743 2.008,-2.262c0.863,-0.537 1.857,-0.797 2.983,-0.797c1.126,0 2.12,0.26 2.984,0.797c0.863,0.519 1.538,1.279 2.007,2.262c0.488,0.983 0.732,2.113 0.732,3.43l0,0.574Zm-2.908,-0.593c0,-1.335 -0.244,-2.354 -0.732,-3.059c-0.488,-0.723 -1.182,-1.075 -2.083,-1.075c-0.901,0 -1.595,0.352 -2.083,1.057c-0.488,0.704 -0.732,1.742 -0.732,3.077l0,0.593c0,1.335 0.244,2.355 0.732,3.078c0.488,0.723 1.201,1.075 2.102,1.075c0.9,0 1.576,-0.352 2.064,-1.075c0.488,-0.723 0.732,-1.743 0.732,-3.078l0,-0.593Z" style="fill:#fff;fill-rule:nonzero;"/></g><g><path d="M166.111,24.526l0,0.129l-3.077,0l-2.458,-4.764l-2.083,0l0,4.764l-2.871,0l0,-13.181l5.047,0c1.032,0 1.914,0.149 2.646,0.464c0.751,0.297 1.314,0.741 1.726,1.335c0.394,0.611 0.582,1.335 0.582,2.187c0,0.927 -0.206,1.706 -0.6,2.299c-0.413,0.593 -1.014,1.057 -1.764,1.409l2.852,5.358Zm-7.618,-6.934l2.176,0c0.676,0 1.201,-0.167 1.558,-0.5c0.338,-0.334 0.525,-0.797 0.525,-1.391c0,-0.611 -0.169,-1.075 -0.525,-1.427c-0.357,-0.334 -0.882,-0.501 -1.558,-0.501l-2.176,0l0,3.819Z" style="fill:#fff;fill-rule:nonzero;"/></g><g><path d="M176.771,22.357l0,2.298l-9.006,0l0,-13.181l9.006,0l0,2.299l-6.136,0l0,3.004l5.217,0l0,2.206l-5.217,0l0,3.374l6.136,0Z" style="fill:#fff;fill-rule:nonzero;"/></g><g><path d="M185.871,11.474l3.134,0l-4.372,8.417l0,4.764l-2.909,0l0,-4.764l-4.372,-8.417l3.134,0l2.702,5.859l2.683,-5.859Z" style="fill:#fff;fill-rule:nonzero;"/></g></g><g><g><g><path d="M50.153,29.354l-2.181,9.516l-1.647,0l-1.766,-6.879l-1.807,6.879l-1.646,0l-2.182,-9.516l1.673,0l1.459,7.094l1.793,-7.094l1.419,0l1.753,7.12l1.446,-7.12l1.686,0Z" style="fill:#fff;fill-rule:nonzero;"/></g></g><g><g><path d="M56.636,35.845l-4.604,0c0.027,0.362 0.12,0.683 0.281,0.964c0.147,0.281 0.361,0.495 0.629,0.656c0.268,0.147 0.589,0.227 0.937,0.227c0.736,0 1.325,-0.281 1.766,-0.856l0.87,0.843c-0.254,0.375 -0.615,0.696 -1.07,0.937c-0.455,0.254 -1.017,0.388 -1.66,0.388c-0.682,0 -1.285,-0.147 -1.807,-0.455c-0.508,-0.295 -0.91,-0.696 -1.177,-1.218c-0.281,-0.522 -0.415,-1.098 -0.415,-1.753l0,-0.268c0,-0.723 0.134,-1.365 0.415,-1.914c0.281,-0.548 0.669,-0.977 1.151,-1.271c0.495,-0.308 1.044,-0.455 1.646,-0.455c0.669,0 1.231,0.147 1.686,0.441c0.455,0.281 0.79,0.696 1.017,1.218c0.214,0.522 0.335,1.138 0.335,1.834l0,0.682Zm-1.606,-1.298c-0.027,-0.455 -0.147,-0.83 -0.375,-1.124c-0.227,-0.294 -0.575,-0.442 -1.057,-0.442c-0.428,0 -0.776,0.148 -1.031,0.442c-0.267,0.294 -0.428,0.709 -0.508,1.245l2.971,0l0,-0.121Z" style="fill:#fff;fill-rule:nonzero;"/></g><g><path d="M61.308,31.67c0.589,0 1.098,0.147 1.512,0.455c0.415,0.294 0.723,0.723 0.937,1.258c0.214,0.549 0.308,1.178 0.308,1.887l0,0.134c0,0.709 -0.107,1.325 -0.308,1.873c-0.214,0.536 -0.522,0.964 -0.937,1.272c-0.414,0.294 -0.923,0.455 -1.499,0.455c-0.816,0 -1.458,-0.308 -1.927,-0.897l-0.08,0.763l-1.472,0l0,-10.037l1.633,0l0,3.64c0.441,-0.536 1.057,-0.803 1.833,-0.803Zm1.138,3.6c0,-0.683 -0.121,-1.231 -0.362,-1.646c-0.241,-0.415 -0.629,-0.629 -1.191,-0.629c-0.669,0 -1.151,0.294 -1.418,0.883l0,2.891c0.267,0.602 0.749,0.91 1.432,0.91c0.548,0 0.936,-0.214 1.177,-0.616c0.241,-0.401 0.362,-0.963 0.362,-1.659l0,-0.134Z" style="fill:#fff;fill-rule:nonzero;"/></g></g><g><g><path d="M71.68,29.354c0.843,0 1.593,0.188 2.249,0.563c0.642,0.374 1.151,0.91 1.512,1.592c0.361,0.683 0.535,1.472 0.535,2.369l0,0.468c0,0.911 -0.174,1.7 -0.535,2.383c-0.361,0.682 -0.87,1.204 -1.526,1.579c-0.655,0.375 -1.432,0.562 -2.302,0.562l-2.757,0l0,-9.516l2.824,0Zm2.597,4.511c0,-1.017 -0.228,-1.794 -0.669,-2.329c-0.442,-0.549 -1.085,-0.816 -1.928,-0.816l-1.124,0l0,6.785l1.057,0c0.87,0 1.539,-0.268 1.995,-0.816c0.441,-0.563 0.669,-1.339 0.669,-2.343l0,-0.481Z" style="fill:#fff;fill-rule:nonzero;"/></g></g><g><g><path d="M83.161,35.845l-4.604,0c0.027,0.362 0.12,0.683 0.281,0.964c0.147,0.281 0.361,0.495 0.629,0.656c0.268,0.147 0.589,0.227 0.937,0.227c0.736,0 1.325,-0.281 1.767,-0.856l0.869,0.843c-0.254,0.375 -0.615,0.696 -1.07,0.937c-0.455,0.254 -1.017,0.388 -1.66,0.388c-0.682,0 -1.285,-0.147 -1.807,-0.455c-0.508,-0.295 -0.91,-0.696 -1.177,-1.218c-0.281,-0.522 -0.415,-1.098 -0.415,-1.753l0,-0.268c0,-0.723 0.134,-1.365 0.415,-1.914c0.281,-0.548 0.669,-0.977 1.151,-1.271c0.495,-0.308 1.044,-0.455 1.646,-0.455c0.669,0 1.231,0.147 1.686,0.441c0.455,0.281 0.79,0.696 1.017,1.218c0.214,0.522 0.335,1.138 0.335,1.834l0,0.682Zm-1.606,-1.298c-0.027,-0.455 -0.147,-0.83 -0.375,-1.124c-0.227,-0.294 -0.575,-0.442 -1.057,-0.442c-0.428,0 -0.776,0.148 -1.031,0.442c-0.267,0.294 -0.428,0.709 -0.508,1.245l2.971,0l0,-0.121Z" style="fill:#fff;fill-rule:nonzero;"/></g></g><g><g><path d="M90.041,31.804l-2.449,7.066l-1.432,0l-2.449,-7.066l1.686,0l1.499,5.005l1.459,-5.005l1.686,0Z" style="fill:#fff;fill-rule:nonzero;"/></g></g><g><g><path d="M96.861,35.845l-4.604,0c0.027,0.362 0.121,0.683 0.281,0.964c0.148,0.281 0.362,0.495 0.629,0.656c0.268,0.147 0.589,0.227 0.937,0.227c0.736,0 1.325,-0.281 1.767,-0.856l0.87,0.843c-0.254,0.375 -0.616,0.696 -1.071,0.937c-0.455,0.254 -1.017,0.388 -1.659,0.388c-0.683,0 -1.285,-0.147 -1.807,-0.455c-0.509,-0.295 -0.91,-0.696 -1.178,-1.218c-0.281,-0.522 -0.415,-1.098 -0.415,-1.753l0,-0.268c0,-0.723 0.134,-1.365 0.415,-1.914c0.281,-0.548 0.669,-0.977 1.151,-1.271c0.495,-0.308 1.044,-0.455 1.646,-0.455c0.669,0 1.232,0.147 1.687,0.441c0.455,0.281 0.789,0.696 1.017,1.218c0.214,0.522 0.334,1.138 0.334,1.834l0,0.682Zm-1.606,-1.298c-0.026,-0.455 -0.147,-0.83 -0.374,-1.124c-0.228,-0.294 -0.576,-0.442 -1.058,-0.442c-0.428,0 -0.776,0.148 -1.03,0.442c-0.268,0.294 -0.429,0.709 -0.509,1.245l2.971,0l0,-0.121Z" style="fill:#fff;fill-rule:nonzero;"/></g></g><g><g><rect x="98.174" y="28.833" width="1.633" height="10.037" style="fill:#fff;"/></g></g><g><g><path d="M101.076,35.27c0,-0.683 0.134,-1.312 0.402,-1.847c0.254,-0.549 0.642,-0.977 1.137,-1.285c0.496,-0.308 1.084,-0.468 1.754,-0.468c0.669,0 1.258,0.16 1.766,0.468c0.495,0.308 0.883,0.736 1.138,1.285c0.267,0.535 0.401,1.164 0.401,1.847l0,0.134c0,0.696 -0.134,1.311 -0.401,1.847c-0.255,0.548 -0.643,0.977 -1.138,1.284c-0.495,0.308 -1.084,0.469 -1.753,0.469c-0.683,0 -1.271,-0.161 -1.767,-0.469c-0.495,-0.307 -0.883,-0.736 -1.137,-1.284c-0.268,-0.536 -0.402,-1.151 -0.402,-1.847l0,-0.134Zm1.633,0.134c0,0.669 0.134,1.218 0.415,1.646c0.281,0.428 0.696,0.642 1.258,0.642c0.361,0 0.682,-0.093 0.923,-0.308c0.255,-0.2 0.442,-0.468 0.562,-0.816c0.121,-0.348 0.174,-0.736 0.174,-1.164l0,-0.134c0,-0.428 -0.053,-0.816 -0.174,-1.164c-0.12,-0.348 -0.307,-0.616 -0.562,-0.817c-0.254,-0.214 -0.562,-0.308 -0.936,-0.308c-0.375,0 -0.683,0.094 -0.937,0.308c-0.241,0.201 -0.429,0.469 -0.549,0.817c-0.12,0.348 -0.174,0.736 -0.174,1.164l0,0.134Z" style="fill:#fff;fill-rule:nonzero;"/></g></g><g><g><path d="M112.169,31.67c0.589,0 1.084,0.147 1.499,0.441c0.428,0.295 0.736,0.723 0.95,1.258c0.214,0.536 0.321,1.165 0.321,1.888l0,0.147c0,0.682 -0.107,1.311 -0.321,1.847c-0.214,0.548 -0.535,0.977 -0.95,1.284c-0.415,0.308 -0.91,0.469 -1.486,0.469c-0.749,0 -1.365,-0.254 -1.833,-0.763l0,3.346l-1.633,0l0,-9.783l1.499,0l0.067,0.709c0.468,-0.562 1.097,-0.843 1.887,-0.843Zm1.138,3.587c0,-0.67 -0.134,-1.205 -0.389,-1.633c-0.267,-0.415 -0.669,-0.629 -1.204,-0.629c-0.629,0 -1.097,0.267 -1.365,0.789l0,3.105c0.281,0.536 0.736,0.803 1.378,0.803c0.536,0 0.924,-0.214 1.191,-0.642c0.268,-0.428 0.389,-0.977 0.389,-1.646l0,-0.147Z" style="fill:#fff;fill-rule:nonzero;"/></g></g><g><g><path d="M123.973,31.67c0.749,0 1.325,0.214 1.713,0.629c0.402,0.415 0.602,1.084 0.602,1.994l0,4.577l-1.632,0l0,-4.577c0,-0.482 -0.108,-0.83 -0.308,-1.017c-0.214,-0.188 -0.522,-0.281 -0.937,-0.281c-0.335,0 -0.616,0.093 -0.857,0.281c-0.227,0.174 -0.388,0.428 -0.481,0.736l0.013,0.147l0,4.711l-1.633,0l0,-4.564c0,-0.468 -0.107,-0.816 -0.321,-1.017c-0.201,-0.187 -0.522,-0.294 -0.923,-0.294c-0.629,0 -1.071,0.254 -1.325,0.763l0,5.112l-1.633,0l0,-7.066l1.526,0l0.053,0.736c0.241,-0.281 0.535,-0.495 0.87,-0.643c0.348,-0.147 0.736,-0.227 1.178,-0.227c0.441,0 0.829,0.093 1.151,0.267c0.334,0.174 0.589,0.442 0.776,0.803c0.241,-0.334 0.535,-0.602 0.897,-0.789c0.374,-0.188 0.789,-0.281 1.271,-0.281Z" style="fill:#fff;fill-rule:nonzero;"/></g></g><g><g><path d="M133.604,35.845l-4.604,0c0.027,0.362 0.121,0.683 0.281,0.964c0.147,0.281 0.362,0.495 0.629,0.656c0.268,0.147 0.589,0.227 0.937,0.227c0.736,0 1.325,-0.281 1.767,-0.856l0.87,0.843c-0.255,0.375 -0.616,0.696 -1.071,0.937c-0.455,0.254 -1.017,0.388 -1.66,0.388c-0.682,0 -1.284,-0.147 -1.806,-0.455c-0.509,-0.295 -0.91,-0.696 -1.178,-1.218c-0.281,-0.522 -0.415,-1.098 -0.415,-1.753l0,-0.268c0,-0.723 0.134,-1.365 0.415,-1.914c0.281,-0.548 0.669,-0.977 1.151,-1.271c0.495,-0.308 1.044,-0.455 1.646,-0.455c0.669,0 1.231,0.147 1.686,0.441c0.455,0.281 0.79,0.696 1.017,1.218c0.215,0.522 0.335,1.138 0.335,1.834l0,0.682Zm-1.606,-1.298c-0.027,-0.455 -0.147,-0.83 -0.375,-1.124c-0.227,-0.294 -0.575,-0.442 -1.057,-0.442c-0.428,0 -0.776,0.148 -1.031,0.442c-0.267,0.294 -0.428,0.709 -0.508,1.245l2.971,0l0,-0.121Z" style="fill:#fff;fill-rule:nonzero;"/></g><g><path d="M138.423,31.67c0.723,0 1.272,0.201 1.66,0.629c0.388,0.415 0.589,1.084 0.589,2.007l0,4.564l-1.633,0l0,-4.577c0,-0.469 -0.094,-0.803 -0.294,-1.004c-0.201,-0.201 -0.522,-0.294 -0.937,-0.294c-0.308,0 -0.576,0.08 -0.817,0.227c-0.241,0.147 -0.428,0.348 -0.575,0.616l0,5.032l-1.619,0l0,-7.066l1.525,0l0.054,0.816c0.254,-0.308 0.548,-0.549 0.896,-0.709c0.348,-0.161 0.737,-0.241 1.151,-0.241Z" style="fill:#fff;fill-rule:nonzero;"/></g><g><path d="M145.017,37.652c0.174,0 0.361,-0.013 0.562,-0.067l0,1.258c-0.321,0.107 -0.669,0.161 -1.057,0.161c-0.576,0 -1.031,-0.161 -1.365,-0.482c-0.335,-0.321 -0.495,-0.83 -0.495,-1.526l0,-3.988l-1.151,0l0,-1.204l1.151,0l0,-1.727l1.619,0l0,1.727l1.245,0l0,1.204l-1.245,0l0,3.881c0,0.295 0.067,0.495 0.187,0.603c0.121,0.107 0.308,0.16 0.549,0.16Z" style="fill:#fff;fill-rule:nonzero;"/></g></g></g><g><g><rect x="0" y="0" width="4" height="41.054" style="fill:#fff;"/><rect x="27.015" y="23.527" width="4" height="17.527" style="fill:#fff;"/><rect x="27.015" y="0" width="4" height="17.527" style="fill:#fff;"/><rect x="0" y="0" width="31.015" height="3.9" style="fill:#fff;"/><rect x="0" y="37.154" width="31.015" height="3.9" style="fill:#fff;"/><path d="M29.582,37.291l-24.876,-19.146l-3.094,2.382l24.876,19.146l3.094,-2.382Z" style="fill:#fff;"/><path d="M29.582,3.762l-24.876,19.146l-3.094,-2.381l24.876,-19.146l3.094,2.381Z" style="fill:#fff;"/></g></g></g></svg>