<?xml version="1.0" encoding="UTF-8" standalone="no"?><!DOCTYPE svg PUBLIC "-//W3C//DTD SVG 1.1//EN" "http://www.w3.org/Graphics/SVG/1.1/DTD/svg11.dtd"><svg width="100%" height="100%" viewBox="0 0 57 14" version="1.1" xmlns="http://www.w3.org/2000/svg" xmlns:xlink="http://www.w3.org/1999/xlink" xml:space="preserve" xmlns:serif="http://www.serif.com/" style="fill-rule:evenodd;clip-rule:evenodd;stroke-linejoin:round;stroke-miterlimit:2;"><g><g><path d="M14.326,10.607l1.762,0l0,-2.82l0.973,0l1.501,2.82l1.978,0l-1.775,-3.131c0.84,-0.372 1.391,-1.103 1.391,-2.256c0,-1.86 -1.355,-2.435 -3.011,-2.435l-2.819,0l0,7.822Zm1.762,-4.222l0,-2.198l0.913,0c0.924,0 1.429,0.264 1.429,1.033c0,0.769 -0.505,1.165 -1.429,1.165l-0.913,0Z" style="fill:#5366c6;fill-rule:nonzero;"/><path d="M23.877,6.648c0.216,-0.78 0.42,-1.692 0.612,-2.521l0.048,0c0.204,0.817 0.419,1.741 0.635,2.521l0.18,0.721l-1.667,0l0.192,-0.721Zm-2.832,3.959l1.8,0l0.48,-1.86l2.387,0l0.48,1.86l1.872,0l-2.448,-7.822l-2.123,0l-2.448,7.822Z" style="fill:#5366c6;fill-rule:nonzero;"/><path d="M28.917,10.607l1.679,0l0,-2.771c0,-0.925 -0.144,-1.969 -0.216,-2.833l0.048,0l0.768,1.704l2.041,3.9l1.811,0l0,-7.822l-1.679,0l0,2.758c0,0.926 0.144,2.03 0.216,2.858l-0.048,0l-0.768,-1.728l-2.041,-3.888l-1.811,0l0,7.822Z" style="fill:#5366c6;fill-rule:nonzero;"/><path d="M36.545,10.607l1.763,0l0,-2.099l0.912,-1.2l1.908,3.299l1.932,0l-2.796,-4.703l2.364,-3.119l-1.944,0l-2.328,3.203l-0.048,0l0,-3.203l-1.763,0l0,7.822Z" style="fill:#5366c6;fill-rule:nonzero;"/><path d="M43.913,10.607l5.015,0l0,-1.486l-3.252,0l0,-1.802l2.664,0l0,-1.474l-2.664,0l0,-1.574l3.132,0l0,-1.486l-4.895,0l0,7.822Z" style="fill:#5366c6;fill-rule:nonzero;"/><path d="M50.245,10.607l1.763,0l0,-2.82l0.972,0l1.501,2.82l1.979,0l-1.775,-3.131c0.839,-0.372 1.391,-1.103 1.391,-2.256c0,-1.86 -1.355,-2.435 -3.012,-2.435l-2.819,0l0,7.822Zm1.763,-4.222l0,-2.198l0.912,0c0.925,0 1.429,0.264 1.429,1.033c0,0.769 -0.504,1.165 -1.429,1.165l-0.912,0Z" style="fill:#5366c6;fill-rule:nonzero;"/></g><g><path d="M10.656,7.196l2.286,0l-4.5,6.196l-4.5,-6.196l2.286,0l2.214,3.048l2.214,-3.048Z" style="fill:#5366c6;"/><path d="M6.714,6.196l2.286,0l-4.5,-6.196l-4.5,6.196l2.286,0l2.214,-3.048l2.214,3.048Z" style="fill:#5366c6;"/></g></g></svg>