<?xml version="1.0" encoding="UTF-8" standalone="no"?><!DOCTYPE svg PUBLIC "-//W3C//DTD SVG 1.1//EN" "http://www.w3.org/Graphics/SVG/1.1/DTD/svg11.dtd"><svg width="100%" height="100%" viewBox="0 0 60 15" version="1.1" xmlns="http://www.w3.org/2000/svg" xmlns:xlink="http://www.w3.org/1999/xlink" xml:space="preserve" xmlns:serif="http://www.serif.com/" style="fill-rule:evenodd;clip-rule:evenodd;stroke-linejoin:round;stroke-miterlimit:2;"><g><g transform="matrix(0.778941,0,0,0.778941,-144.14,-229.692)"><g transform="matrix(15,0,0,15,205.082,309.19)"><path d="M0.613,0l-0.158,-0.294c0.066,-0.041 0.119,-0.096 0.119,-0.204c0,-0.152 -0.106,-0.202 -0.241,-0.202l-0.256,0l0,0.7l0.128,0l0,-0.26l0.13,0l0.145,0.26l0.133,0Zm-0.309,-0.593c0.11,0 0.136,0.039 0.136,0.104c0,0.063 -0.025,0.109 -0.141,0.109l-0.094,0l0,-0.213l0.099,0Z" style="fill:#5366c6;fill-rule:nonzero;"/></g><g transform="matrix(15,0,0,15,214.727,309.19)"><path d="M0.622,0l-0.249,-0.7l-0.121,0l-0.249,0.7l0.133,0l0.06,-0.169l0.233,0l0.06,0.169l0.133,0Zm-0.237,-0.293l-0.145,0l0.072,-0.205l0.073,0.205Z" style="fill:#5366c6;fill-rule:nonzero;"/></g><g transform="matrix(15,0,0,15,224.102,309.19)"><path d="M0.63,0l0,-0.7l-0.128,0l0,0.452l-0.299,-0.452l-0.126,0l0,0.7l0.128,0l0,-0.48l0.32,0.48l0.105,0Z" style="fill:#5366c6;fill-rule:nonzero;"/></g><g transform="matrix(15,0,0,15,234.557,309.19)"><path d="M0.618,0l-0.244,-0.37l0.244,-0.33l-0.144,0l-0.244,0.33l0.244,0.37l0.144,0Zm-0.413,0l0,-0.7l-0.128,0l0,0.7l0.128,0Z" style="fill:#5366c6;fill-rule:nonzero;"/></g><g transform="matrix(15,0,0,15,244.022,309.19)"><path d="M0.535,0l0,-0.124l-0.327,0l0,-0.179l0.246,0l0,-0.124l-0.246,0l0,-0.149l0.317,0l0,-0.124l-0.448,0l0,0.7l0.458,0Z" style="fill:#5366c6;fill-rule:nonzero;"/></g><g transform="matrix(15,0,0,15,252.692,309.19)"><path d="M0.613,0l-0.158,-0.294c0.066,-0.041 0.119,-0.096 0.119,-0.204c0,-0.152 -0.106,-0.202 -0.241,-0.202l-0.256,0l0,0.7l0.128,0l0,-0.26l0.13,0l0.145,0.26l0.133,0Zm-0.309,-0.593c0.11,0 0.136,0.039 0.136,0.104c0,0.063 -0.025,0.109 -0.141,0.109l-0.094,0l0,-0.213l0.099,0Z" style="fill:#5366c6;fill-rule:nonzero;"/></g></g><g><g><path d="M2.179,6.196l-2.179,0l4.5,-6.196l4.5,6.196l-2.179,0l-2.321,-3.196l-2.321,3.196Z" style="fill:#5366c6;"/><path d="M11.321,7.922l2.179,0l-4.5,6.196l-4.5,-6.196l2.179,0l2.321,3.196l2.321,-3.196Z" style="fill:#5366c6;"/></g></g></g></svg>